<svg xmlns="http://www.w3.org/2000/svg"  viewBox="0 0 64 64" width="64px" height="64px" baseProfile="basic"><ellipse cx="32" cy="61" opacity=".3" rx="19" ry="3"/><circle cx="32" cy="11" r="6" fill="#ffce29"/><path fill="#9c34c2" d="M42,38.543H22V29c0-5.523,4.477-10,10-10l0,0c5.523,0,10,4.477,10,10V38.543z"/><path fill="#9c34c2" d="M35.539,55h-7.078c-1.203,0-2.198-0.938-2.269-2.139l-1.011-17.179h13.636l-1.011,17.179	C37.737,54.062,36.742,55,35.539,55z"/><circle cx="24.5" cy="38.5" r="2.5" fill="#9c34c2"/><circle cx="39.5" cy="38.5" r="2.5" fill="#9c34c2"/><path fill="#fff" d="M27,29c0-2.757,2.243-5,5-5c2.33,0,4.271-1.601,4.826-3.757 C35.394,19.452,33.751,19,32,19c-5.523,0-10,4.477-10,10v5C24.762,34,27,31.762,27,29z" opacity=".3"/><path d="M38.52,40.795L38.52,40.795c-2.764-0.166-5.123,1.94-5.285,4.697l-0.238,4.014 c-0.143,2.436,1.485,4.561,3.766,5.136c0.594-0.38,1.001-1.029,1.046-1.782L38.52,40.795z" opacity=".15"/><path fill="none" stroke="#fff" stroke-linecap="round" stroke-linejoin="round" stroke-miterlimit="10" stroke-width="3" d="M26.012,26.472c0.329-0.777,0.806-1.478,1.394-2.066s1.289-1.065,2.066-1.394"/></svg>